<svg width="256" height="256" viewBox="0 0 256 256" fill="none" xmlns="http://www.w3.org/2000/svg" role="img" aria-label="Urchin logo">
  <defs>
    <linearGradient id="g1" x1="128" y1="20" x2="128" y2="126" gradientUnits="userSpaceOnUse">
      <stop stop-color="#7A8591"/>
      <stop offset="1" stop-color="#56606A"/>
    </linearGradient>
    <linearGradient id="g2" x1="128" y1="20" x2="128" y2="126" gradientUnits="userSpaceOnUse">
      <stop stop-color="#9AA3AD"/>
      <stop offset="1" stop-color="#626C77"/>
    </linearGradient>
    <linearGradient id="g3" x1="128" y1="20" x2="128" y2="126" gradientUnits="userSpaceOnUse">
      <stop stop-color="#6B7681"/>
      <stop offset="1" stop-color="#4A5560"/>
    </linearGradient>
  </defs>

  <g transform="translate(128 128)">
    <polygon points="0,-112 16,-8 -16,-8" fill="url(#g1)"/>
    <polygon points="0,-112 16,-8 -16,-8" fill="url(#g2)" transform="rotate(30)"/>
    <polygon points="0,-112 16,-8 -16,-8" fill="url(#g3)" transform="rotate(60)"/>
    <polygon points="0,-112 16,-8 -16,-8" fill="url(#g1)" transform="rotate(90)"/>
    <polygon points="0,-112 16,-8 -16,-8" fill="url(#g2)" transform="rotate(120)"/>
    <polygon points="0,-112 16,-8 -16,-8" fill="url(#g3)" transform="rotate(150)"/>
    <polygon points="0,-112 16,-8 -16,-8" fill="url(#g1)" transform="rotate(180)"/>
    <polygon points="0,-112 16,-8 -16,-8" fill="url(#g2)" transform="rotate(210)"/>
    <polygon points="0,-112 16,-8 -16,-8" fill="url(#g3)" transform="rotate(240)"/>
    <polygon points="0,-112 16,-8 -16,-8" fill="url(#g1)" transform="rotate(270)"/>
    <polygon points="0,-112 16,-8 -16,-8" fill="url(#g2)" transform="rotate(300)"/>
    <polygon points="0,-112 16,-8 -16,-8" fill="url(#g3)" transform="rotate(330)"/>
  </g>

  <circle cx="128" cy="128" r="34" fill="#5A6570"/>
</svg>
